<svg width="16" height="16" xmlns="http://www.w3.org/2000/svg">
 <title/>

 <g>
  <title>background</title>
  <rect fill="none" id="canvas_background" height="402" width="582" y="-1" x="-1"/>
 </g>
 <g>
  <title>Layer 1</title>
  <path fill="#31708e" id="Rectangle 317" d="m3,1l0,3l10,0l0,-3l-10,0zm0.00247,-1l9.99506,0c0.54671,0 1.00247,0.44811 1.00247,1.00087l0,13.99826c0,0.55624 -0.44882,1.00087 -1.00247,1.00087l-9.99506,0c-0.54671,0 -1.00247,-0.44811 -1.00247,-1.00087l0,-13.99826c0,-0.55624 0.44882,-1.00087 1.00247,-1.00087zm0.99753,6l0,2l2,0l0,-2l-2,0zm3,0l0,2l2,0l0,-2l-2,0zm3,0l0,2l2,0l0,-2l-2,0zm-6,3l0,2l2,0l0,-2l-2,0zm3,0l0,2l2,0l0,-2l-2,0zm3,0l0,2l2,0l0,-2l-2,0zm-6,3l0,2l2,0l0,-2l-2,0zm3,0l0,2l2,0l0,-2l-2,0zm3,0l0,2l2,0l0,-2l-2,0zm0,0"/>
 </g>
</svg>