<svg width="100" height="100" xmlns="http://www.w3.org/2000/svg">

 <g>
  <title>background</title>
  <rect fill="none" id="canvas_background" height="402" width="582" y="-1" x="-1"/>
 </g>
 <g>
  <title>Layer 1</title>
  <path fill="#31708e" id="svg_2" d="m78.559,75.557l-58.603,0c-3.493,0 -6.337,-3.109 -6.337,-6.932l0,-35.986c0,-3.821 2.844,-6.932 6.337,-6.932l58.603,0c3.494,0 6.337,3.11 6.337,6.932l0,35.986c0,3.822 -2.843,6.932 -6.337,6.932zm-58.603,-43.699c-0.724,0 -1.169,0.505 -1.169,0.78l0,35.986c0,0.275 0.445,0.78 1.169,0.78l58.603,0c0.724,0 1.169,-0.505 1.169,-0.78l0,-35.985c0,-0.275 -0.445,-0.78 -1.169,-0.78l-58.603,0l0,-0.001z"/>
  <polygon fill="#31708e" id="svg_3" points="81,30.6 49.231,49.131 18.08,30.609 14.604,35.232 49.157,55.777 84.435,35.25  "/>
 </g>
</svg>