<svg width="28" height="28" xmlns="http://www.w3.org/2000/svg">

 <g>
  <title>background</title>
  <rect fill="none" id="canvas_background" height="402" width="582" y="-1" x="-1"/>
 </g>
 <g>
  <title>Layer 1</title>
  <path id="svg_1" fill-rule="evenodd" fill="#31708e" d="m21.232689,8.03445l1.75961,-0.1646c0.26066,-0.02547 0.50267,-0.13934 0.68604,-0.32279l2.10793,-2.10793c0.30521,-0.30521 0.7609,-0.40755 1.17709,-0.26435c0.41618,0.1432 0.72142,0.50735 0.78846,0.94064c0.39594,2.51987 -0.62635,5.01884 -2.65787,6.49713c-2.03152,1.47828 -4.74052,1.69448 -7.0432,0.5621l-13.84907,13.84907c-0.91282,0.91282 -2.39278,0.91282 -3.3056,0c-0.91282,-0.91281 -0.91282,-2.39278 0,-3.3056l13.85068,-13.85068c-1.13063,-2.30272 -0.91365,-5.01068 0.56423,-7.04163c1.47788,-2.03096 3.97562,-3.05368 6.49501,-2.65944c0.43328,0.06704 0.79744,0.37228 0.94064,0.78847c0.14319,0.41618 0.04086,0.87187 -0.26435,1.17708l-2.09504,2.09503c-0.19182,0.19271 -0.30672,0.44934 -0.32397,0.72355l-0.11967,1.83356c-0.02203,0.34158 0.10933,0.67895 0.35845,0.92059c0.24911,0.24164 0.59016,0.3625 0.93063,0.3298zm-18.91389,17.56985c0.39053,0.39052 1.02369,0.39052 1.41422,0c0.39052,-0.39052 0.39052,-1.02369 0,-1.41421c-0.39053,-0.39053 -1.02369,-0.39053 -1.41422,0c-0.39052,0.39052 -0.39052,1.02369 0,1.41421z"/>
  <polyline stroke-linecap="round" id="svg_3" points="-7.825445432390589,5.875916875463784 -7.86575096412169,5.916222407194885 " stroke-width="1.5" stroke="#000" fill="none"/>
 </g>
</svg>